<svg xmlns="http://www.w3.org/2000/svg" version="1.1" xmlns:xlink="http://www.w3.org/1999/xlink" width="24" height="24" x="0" y="0" viewBox="0 0 512 512" style="enable-background:new 0 0 512 512" xml:space="preserve" class=""><g><path fill-rule="evenodd" d="M512 248.471v150.588c0 16.633-13.484 30.118-30.118 30.118H30.118C13.484 429.176 0 415.692 0 399.059V248.471zm-67.765 90.353H384a7.53 7.53 0 0 0-7.529 7.529v15.059a7.53 7.53 0 0 0 7.529 7.529h60.235a7.53 7.53 0 0 0 7.529-7.529v-15.059a7.528 7.528 0 0 0-7.529-7.529zm-105.411 0h-60.235a7.53 7.53 0 0 0-7.529 7.529v15.059a7.53 7.53 0 0 0 7.529 7.529h60.235a7.53 7.53 0 0 0 7.529-7.529v-15.059a7.53 7.53 0 0 0-7.529-7.529zm-308.706-256h451.765c16.634 0 30.118 13.484 30.118 30.118v60.235H0v-60.235c0-16.634 13.484-30.118 30.118-30.118z" clip-rule="evenodd" fill="#6a5111" opacity="1" data-original="#000000" class=""></path></g></svg>