<svg xmlns="http://www.w3.org/2000/svg" version="1.1" xmlns:xlink="http://www.w3.org/1999/xlink" width="24" height="24" x="0" y="0" viewBox="0 0 44 56" style="enable-background:new 0 0 512 512" xml:space="preserve" class=""><g><g fill="#000" fill-rule="nonzero" transform="translate(0 -1)"><path d="M22 42a3.009 3.009 0 0 0-2.539 1.428 5.921 5.921 0 0 0 5.078 0A3.009 3.009 0 0 0 22 42z" fill="#6a5111" opacity="1" data-original="#000000" class=""></path><path d="M17.817 42.293a4.962 4.962 0 0 1 8.366 0A5.978 5.978 0 0 0 28 38H16c0 1.618.655 3.167 1.817 4.293z" fill="#6a5111" opacity="1" data-original="#000000" class=""></path><circle cx="31" cy="29" r="1" fill="#6a5111" opacity="1" data-original="#000000" class=""></circle><circle cx="13" cy="29" r="1" fill="#6a5111" opacity="1" data-original="#000000" class=""></circle><path d="M31 52h-3.142A4 4 0 0 1 24 55h-4a4 4 0 0 1-3.858-3H13a6.01 6.01 0 0 0-5.917 5h29.834A6 6 0 0 0 31 52z" fill="#6a5111" opacity="1" data-original="#000000" class=""></path><path d="M24 53a2 2 0 0 0 2-2v-1.432a18.735 18.735 0 0 1-8 0V51a2 2 0 0 0 2 2zM43.268 27.742A2.458 2.458 0 0 0 41.5 27H41v4c0 .338-.033.667-.051 1h.551a2.5 2.5 0 0 0 2.5-2.5 2.449 2.449 0 0 0-.732-1.758zM9.018 20.434A36.157 36.157 0 0 1 5 25.4V31c0 9.389 7.611 17 17 17s17-7.611 17-17v-5.6a39.623 39.623 0 0 1-6.43-8.98c-8.494 4.547-18.114 4.525-23.552 4.014zM21 32h2a1 1 0 0 1 0 2h-2a1 1 0 0 1 0-2zm-10-9h3a1 1 0 0 1 0 2h-3a1 1 0 0 1 0-2zm-1 6a3 3 0 1 1 6 0 3 3 0 0 1-6 0zm20 9a8 8 0 1 1-16 0v-1a1 1 0 0 1 1-1h14a1 1 0 0 1 1 1zm1-6a3 3 0 1 1 0-6 3 3 0 0 1 0 6zm3-8a1 1 0 0 1-1 1h-3a1 1 0 0 1 0-2h3a1 1 0 0 1 1 1z" fill="#6a5111" opacity="1" data-original="#000000" class=""></path><path d="m38.182 3.646-.714-1.016a.987.987 0 0 0-1.441-.18 11.042 11.042 0 0 1-7.095 2.618.935.935 0 0 1-.711-.373c-2.452-3.056-9.318-3.71-13.659-3.7a.992.992 0 0 0-1.005.939c-.052 2.124-1.757 4.03-2.957 4.929a1 1 0 0 1-1.547-.484 3.6 3.6 0 0 0-2.786-2.136.985.985 0 0 0-1.094.47 21.135 21.135 0 0 0-.883 18.536 36.143 36.143 0 0 0 3.4-4.42.988.988 0 0 1 .941-.445c5.249.558 15.329.755 23.871-4.216a1 1 0 0 1 1.413.449 38.273 38.273 0 0 0 5.8 8.631 21.432 21.432 0 0 0-1.533-19.602zM3 27h-.5A2.516 2.516 0 0 0 0 29.5 2.5 2.5 0 0 0 2.5 32h.551C3.033 31.667 3 31.338 3 31z" fill="#6a5111" opacity="1" data-original="#000000" class=""></path></g></g></svg>