<svg xmlns="http://www.w3.org/2000/svg" version="1.1" xmlns:xlink="http://www.w3.org/1999/xlink" width="64" height="64" x="0" y="0" viewBox="0 0 640 640" style="enable-background:new 0 0 512 512" xml:space="preserve" class=""><g><path d="M267.078 282.93c-3.906-3.903-10.234-3.903-14.14 0a37.995 37.995 0 0 1-55.88 0c-3.93-3.785-10.167-3.72-14.019.14-3.851 3.864-3.894 10.102-.101 14.02a64.172 64.172 0 0 0 43.261 18.578 56.901 56.901 0 0 0 40.88-18.578 10.002 10.002 0 0 0 0-14.16zM356.2 315.648a56.947 56.947 0 0 0 40.878-18.578 10.004 10.004 0 0 0-.121-14.02 10.004 10.004 0 0 0-14.02-.12 37.995 37.995 0 0 1-55.878 0c-3.93-3.785-10.168-3.72-14.02.14-3.852 3.864-3.894 10.102-.102 14.02a64.167 64.167 0 0 0 43.262 18.558zM322.938 372.93c-31.72 31.71-62.434 3.367-65.88 0-3.93-3.785-10.167-3.72-14.019.14-3.852 3.864-3.894 10.102-.102 14.02a71.787 71.787 0 0 0 48.399 20.793 63.72 63.72 0 0 0 45.742-20.793 10.004 10.004 0 0 0-.121-14.02 10.004 10.004 0 0 0-14.02-.12zM146.438 169.34c5.156 1.98 10.937-.594 12.921-5.75 17.356-48.66 59.778-84.05 110.762-92.41a221.817 221.817 0 0 1 77.996-1.371c5.336.902 10.426-2.602 11.48-7.914a10.001 10.001 0 0 0-7.59-11.696c-1.581-.312-158.859-30.078-211.3 106.211-1.988 5.153.578 10.942 5.73 12.93zm0 0" fill="#6a5111" opacity="1" data-original="#000000"></path><path d="M348.918 90.059A245.516 245.516 0 0 0 192.008 184c-3.313 4.418-2.422 10.688 2 14 4.418 3.313 10.687 2.422 13.996-2a229.336 229.336 0 0 1 143.121-86.059c5.492-.613 9.445-5.562 8.832-11.05-.613-5.493-5.559-9.442-11.047-8.832zM432.945 217.07c3.926 3.79 10.164 3.735 14.02-.12 3.86-3.86 3.91-10.095.12-14.02-14.874-14.93-32.077-66.93-37.448-85.68-1.52-5.313-7.055-8.383-12.364-6.863-5.312 1.52-8.382 7.054-6.867 12.363 2.121 7.422 21.32 73.102 42.54 94.32zm0 0" fill="#6a5111" opacity="1" data-original="#000000"></path><path d="M41.555 599.848a10.059 10.059 0 0 0 8.453-8.907 51.132 51.132 0 0 1 20.398-33.773c.52-.375 1.13-.66 1.672-.996A49.502 49.502 0 0 0 70.008 570v20c0 5.523 4.476 10 10 10h420c5.523 0 10-4.477 10-10v-20a49.537 49.537 0 0 0-3.254-17.613 42.157 42.157 0 0 1 9.484 5.886 41.53 41.53 0 0 1 13.77 31.157 10 10 0 0 0 7.672 10.3c.761.176 1.543.27 2.328.27a9.992 9.992 0 0 0 9.168-6c57.379-131.547 26.004-188-7.219-247.863-20.578-37.055-41.863-75.364-41.95-135.828.43-7.16 4.169-91.137-52.089-151.399C411.438 19.82 358.308 0 290.008 0c-3.73 0-92.004.707-153.512 62.66C98.5 100.941 79.5 153.902 80.008 220.078c.742 94.57-25.45 134.613-48.551 169.922-30 45.918-53.738 82.191-.621 204a9.992 9.992 0 0 0 10.719 5.848zM490.008 570v10h-400v-10a29.874 29.874 0 0 1 12-23.89 144.503 144.503 0 0 1 45.879 3.652c28.543 6.336 49.832 2.386 64.629-11.711a49.56 49.56 0 0 0 12.195-17.48 73.962 73.962 0 0 0 5.144-16.423 110.917 110.917 0 0 0 2.004-20.445c.188-8.879-.48-17.758-2.004-26.5 0-.074-.066-.125-.085-.191a9.824 9.824 0 0 0-1.641-3.621c-.133-.192-.242-.36-.39-.54a9.78 9.78 0 0 0-2.333-2.152 146.88 146.88 0 0 1-37.937-35.527 180.866 180.866 0 0 1-24.64-49l-.224-.664c-1.625-4.938-3.128-10.164-4.507-15.64-.114-.47-.23-.919-.352-1.388a258.088 258.088 0 0 1-3.738-17.773l-.078-.418a299.285 299.285 0 0 1-3.625-38.371c.062-1.668.113-3.34.191-5C181.008 276 295.696 232 343.328 171.078A181.673 181.673 0 0 0 429.797 295.7a229.771 229.771 0 0 1-16.48 84.672 158.113 158.113 0 0 1-58.672 70.328 8.571 8.571 0 0 0-1.997 1.871c-.375.442-.71.922-1 1.43-.218.418-.414.848-.59 1.29a9.918 9.918 0 0 0-.859 1.913 123.496 123.496 0 0 0-1.68 26.54c0 .82.06 1.628.098 2.476 0 .613.102 1.222.149 1.843a82.13 82.13 0 0 0 4.64 23.196c.094.289.192.574.293.86.68 1.91 1.461 3.843 2.328 5.726l.192.39c.238.508.469.993.719 1.536.378.718.808 1.44 1.23 2.167a57.748 57.748 0 0 0 9.777 13.262c.172.172.371.29.535.45.774.851 1.407 1.519 1.72 1.843 1.23 1.086 2.585 2 3.91 2.996.199.14.39.293.574.442a57.623 57.623 0 0 0 6.375 3.918c.359.191.714.41 1.086.59 2.136 1.066 4.328 2 6.574 2.796.547.196 1.07.43 1.629.602a67.133 67.133 0 0 0 6.75 1.805c.73.16 1.43.37 2.175.511 2.243.43 4.598.7 7.004.938.899.09 1.746.23 2.66.297 2.36.16 4.84.172 7.329.152 1.004 0 2.004.059 3 0 2.62-.086 5.359-.336 8.12-.621 1-.086 1.903-.117 2.9-.238 3.78-.461 7.679-1.078 11.702-1.89 4.02-.81 7.899-1.438 11.68-2l2-.25c3.289-.423 6.496-.774 9.598-1l1.3-.099c3.387-.214 6.653-.304 9.805-.261h.488c.508 0 1 .078 1.477.09A29.812 29.812 0 0 1 490.008 570zM48.195 401c23.434-35.84 52.594-80.43 51.82-181-.456-60.563 16.551-108.691 50.563-143 55.48-56.16 138.617-57 139.43-57 62.449 0 110.62 17.64 143.168 52.43 51.652 55.168 46.918 136.09 46.832 136.902V210c0 65.813 23.617 108.328 44.457 145.852 29.57 53.25 55.43 99.796 17.46 202.68a57.373 57.373 0 0 0-12.386-15.192 69.683 69.683 0 0 0-33.371-15.16 105.75 105.75 0 0 0 23.687-89.828 9.989 9.989 0 0 0-6.324-7.926 9.988 9.988 0 0 0-10 1.676 9.983 9.983 0 0 0-3.39 9.546A83.646 83.646 0 0 1 474.008 522a9.723 9.723 0 0 0-3.074 4.242l-1.688.086c-1.586.063-3.2.16-4.828.274-2.711.18-5.488.449-8.32.777-1.5.168-3 .32-4.52.531-4.394.61-8.871 1.328-13.5 2.262-3.203.625-6.289 1.137-9.273 1.527-.356 0-.688.059-1 .102-1.739.21-3.399.328-5.067.46A96.315 96.315 0 0 0 450.008 470c0-5.523-4.477-10-10-10-5.524 0-10 4.477-10 10 0 28.848-25 52.652-33.313 59.781a36.958 36.958 0 0 1-13.996-8.234 71.145 71.145 0 0 1-6.851-9.133 46.542 46.542 0 0 1-2.243-4.398c-.19-.438-.39-.813-.554-1.278a56.944 56.944 0 0 1-2.004-6.379l-.399-1.437a81.607 81.607 0 0 1-2.003-14.61c0-.464-.047-.914-.067-1.351a106.769 106.769 0 0 1 .82-17.59c18.207-11.191 80.61-57.941 80.61-175.371 0-3.656-1.996-7.027-5.211-8.781-1.547-.848-2.871-1.809-4.371-2.68-3.719-2.176-7.461-4.36-10.848-6.707-1-.695-1.84-1.45-2.812-2.152-3.551-2.578-7.055-5.168-10.239-7.899-.632-.531-1.14-1.113-1.757-1.648-3.352-3.004-6.602-6-9.551-9.004-.364-.379-.653-.777-1.004-1.168-3.078-3.281-6-6.61-8.664-10-.184-.23-.324-.469-.504-.703a171.753 171.753 0 0 1-35.04-99.117 9.994 9.994 0 0 0-8.12-9.95 9.994 9.994 0 0 0-11.219 6.25 74.812 74.812 0 0 1-4.832 10c-.277.489-.55 1-.828 1.457-16.27 27.512-51.738 53.43-90.63 75a755.393 755.393 0 0 1-100.089 44.946c-2 .715-4.129 1.488-6.082 2.156l-1.379.477a10.012 10.012 0 0 0-6.82 9.523c0 4 .238 7.738.36 11.602 0 .812-.063 1.527-.083 2.359.063 1.527.219 2.996.293 4.512.172 3.148.371 6.23.621 9.265.27 3.532.621 7.004 1 10.469.356 3.195.727 6.344 1.168 9.406.438 3.055.942 5.926 1.461 8.856.57 3.254 1.14 6.508 1.8 9.62.497 2.372 1.099 4.673 1.661 7 .84 3.458 1.668 6.919 2.606 10.2.496 1.711 1.062 3.371 1.582 5.063 1.168 3.75 2.351 7.46 3.628 10.949.473 1.261 1 2.465 1.461 3.715 1.489 3.836 3.004 7.574 4.61 11.105.543 1.188 1.12 2.328 1.68 3.5 1.648 3.469 3.328 6.816 5.062 10 .8 1.461 1.633 2.879 2.453 4.309 1.516 2.601 2.996 5.101 4.578 7.48.707 1.106 1.34 2.29 2.067 3.38.379.53.8 1 1.191 1.53a146.8 146.8 0 0 0 41.531 41 121.403 121.403 0 0 1 1.102 18.489v.914c0 .996-.094 1.996-.145 2.996a54.51 54.51 0 0 1-12.86 35.562 31.395 31.395 0 0 1-14.065 7.73c-6.262-5.144-34.762-30.21-34.762-61.011 0-5.523-4.477-10-10-10-5.524 0-10 4.477-10 10a95.292 95.292 0 0 0 26.129 60.941c-1.34-.254-2.54-.39-4-.703a221.142 221.142 0 0 0-15-2.797h-.219a158.756 158.756 0 0 0-28.063-1.793 9.818 9.818 0 0 0-2.847-3.648 84.132 84.132 0 0 1-26.14-80.352c.765-5.375-2.891-10.378-8.25-11.273-5.356-.898-10.442 2.64-11.47 7.977A105.571 105.571 0 0 0 84.605 529a77.702 77.702 0 0 0-26.316 12.191 69.39 69.39 0 0 0-18.93 21C3.406 469.457 22.508 440.25 48.195 401zm0 0" fill="#6a5111" opacity="1" data-original="#000000"></path></g></svg>