<svg xmlns="http://www.w3.org/2000/svg" version="1.1" xmlns:xlink="http://www.w3.org/1999/xlink" width="28" height="28" x="0" y="0" viewBox="0 0 26 26" style="enable-background:new 0 0 512 512" xml:space="preserve" class=""><g><path d="M4.325 20.65c0 2.48 3.73 4.35 8.68 4.35 4.94 0 8.67-1.87 8.67-4.35 0-1.38-1.16-2.58-3.05-3.36a59.448 59.448 0 0 1-3.3 4.45 3.005 3.005 0 0 1-4.64.01c-.69-.83-2-2.49-3.31-4.46-1.89.78-3.05 1.98-3.05 3.36z" fill="#6a5111" opacity="1" data-original="#000000" class=""></path><path d="M13.005 20.84c.3 0 .58-.14.77-.37.68-.83 6.65-8.25 6.65-12.04 0-4.1-3.33-7.43-7.42-7.43-4.1 0-7.43 3.33-7.43 7.43 0 3.79 5.97 11.21 6.65 12.04.19.23.48.37.78.37zm-3.03-12.3a3.026 3.026 0 0 1 6.05 0 3.026 3.026 0 0 1-6.05 0z" fill="#6a5111" opacity="1" data-original="#000000" class=""></path></g></svg>