<svg xmlns="http://www.w3.org/2000/svg" version="1.1" xmlns:xlink="http://www.w3.org/1999/xlink" width="28" height="28" x="0" y="0" viewBox="0 0 512 512" style="enable-background:new 0 0 512 512" xml:space="preserve" class=""><g><path d="M256 486.075c-126.864 0-230.076-103.213-230.076-230.08 0-126.861 103.212-230.07 230.076-230.07s230.076 103.209 230.076 230.07c0 126.866-103.212 230.08-230.076 230.08zm0-428.15c-109.22 0-198.076 88.854-198.076 198.07 0 109.222 88.856 198.08 198.076 198.08s198.076-88.858 198.076-198.08c0-109.216-88.856-198.07-198.076-198.07z" fill="#6a5111" opacity="1" data-original="#000000" class=""></path><path d="M333.12 332.547c-2.838 0-5.711-.755-8.312-2.34l-77.135-47.01A15.998 15.998 0 0 1 240 269.534v-113.59c0-8.836 7.164-16 16-16s16 7.164 16 16v104.604l69.461 42.333c7.546 4.599 9.935 14.444 5.336 21.989-3.013 4.946-8.281 7.677-13.677 7.677z" fill="#6a5111" opacity="1" data-original="#000000" class=""></path></g></svg>