<svg xmlns="http://www.w3.org/2000/svg" version="1.1" xmlns:xlink="http://www.w3.org/1999/xlink" width="24" height="24" x="0" y="0" viewBox="0 0 512.031 512.031" style="enable-background:new 0 0 512 512" xml:space="preserve" class=""><g><path d="M497.031 70.155H15c-8.284 0-15 6.716-15 15v292.167c0 8.284 6.716 15 15 15h63.218L62.413 419.29c-4.188 7.147-1.79 16.337 5.357 20.525a14.925 14.925 0 0 0 7.57 2.061c5.149 0 10.164-2.654 12.956-7.418l24.694-42.137h285.044l24.694 42.137c2.792 4.764 7.806 7.418 12.955 7.418 2.576 0 5.188-.665 7.57-2.061 7.147-4.188 9.546-13.378 5.357-20.525l-15.805-26.969h64.226c8.284 0 15-6.716 15-15V85.155c0-8.284-6.715-15-15-15zM216.292 190.88h-16.604v98.993c0 8.284-6.716 15-15 15s-15-6.716-15-15V190.88h-16.349c-8.284 0-15-6.716-15-15s6.716-15 15-15h62.953c8.284 0 15 6.716 15 15s-6.716 15-15 15zm154.627-10.062-37.22 112.039-.033.099a17.586 17.586 0 0 1-16.519 11.916h-.12a17.587 17.587 0 0 1-16.559-11.692l-.035-.101-38.973-112.28c-2.717-7.826 1.425-16.373 9.251-19.089 7.829-2.716 16.374 1.426 19.089 9.251l26.97 77.698 25.679-77.298c2.612-7.862 11.103-12.119 18.964-9.506 7.862 2.611 12.118 11.102 9.506 18.963z" fill="#6a5111" opacity="1" data-original="#000000" class=""></path></g></svg>