<svg xmlns="http://www.w3.org/2000/svg" version="1.1" xmlns:xlink="http://www.w3.org/1999/xlink" width="64" height="64" x="0" y="0" viewBox="0 0 640 640" style="enable-background:new 0 0 512 512" xml:space="preserve" class=""><g><path d="M300 339.91a29.999 29.999 0 0 0 21.219-51.207c-11.875-11.32-30.547-11.32-42.422 0a29.996 29.996 0 0 0-6.496 32.684A29.983 29.983 0 0 0 300 339.91zm-7.07-37.07c3.906-3.903 10.234-3.903 14.14 0 3.903 3.906 3.903 10.238 0 14.14a10.224 10.224 0 0 1-14.14 0c-3.903-3.902-3.903-10.234 0-14.14zM420 199.91a10 10 0 0 0 7.07-2.93l90-90c3.79-3.921 3.735-10.16-.12-14.02a10.004 10.004 0 0 0-14.02-.12l-90 90c-2.856 2.863-3.715 7.164-2.168 10.898s5.195 6.172 9.238 6.172zM370 249.91a10 10 0 0 0 7.07-2.93l20-20c3.79-3.921 3.735-10.16-.12-14.02a10.004 10.004 0 0 0-14.02-.12l-20 20c-2.856 2.863-3.715 7.164-2.168 10.898s5.195 6.172 9.238 6.172zM110 479.91c-22.09 0-40 17.91-40 40 0 22.094 17.91 40 40 40s40-17.906 40-40c0-22.09-17.91-40-40-40zm0 60c-11.047 0-20-8.95-20-20 0-11.043 8.953-20 20-20s20 8.957 20 20c0 11.05-8.953 20-20 20zM490.371 559.91c22.09 0 40-17.906 40-40 0-22.09-17.91-40-40-40-22.094 0-40 17.91-40 40 0 22.094 17.906 40 40 40zm0-60c11.043 0 20 8.957 20 20 0 11.05-8.957 20-20 20s-20-8.95-20-20c0-11.043 8.957-20 20-20zM590 349.91c-22.09 0-40-17.906-40-40 0-5.523-4.477-10-10-10s-10 4.477-10 10c0 22.094-17.91 40-40 40-5.523 0-10 4.477-10 10 0 5.524 4.477 10 10 10 22.09 0 40 17.91 40 40 0 5.524 4.477 10 10 10s10-4.476 10-10c0-22.09 17.91-40 40-40 5.523 0 10-4.476 10-10 0-5.523-4.477-10-10-10zm-50 26.906a60.452 60.452 0 0 0-16.898-16.906A60.425 60.425 0 0 0 540 343.012a60.425 60.425 0 0 0 16.898 16.898A60.452 60.452 0 0 0 540 376.816zM10 249.91c22.09 0 40 17.91 40 40 0 5.524 4.477 10 10 10s10-4.476 10-10c0-22.09 17.91-40 40-40 5.523 0 10-4.476 10-10 0-5.523-4.477-10-10-10-22.09 0-40-17.906-40-40 0-5.523-4.477-10-10-10s-10 4.477-10 10c0 22.094-17.91 40-40 40-5.523 0-10 4.477-10 10 0 5.524 4.477 10 10 10zm50-26.898a60.425 60.425 0 0 0 16.898 16.898A60.452 60.452 0 0 0 60 256.816a60.452 60.452 0 0 0-16.898-16.906A60.425 60.425 0 0 0 60 223.012zm0 0" fill="#6a5111" opacity="1" data-original="#000000" class=""></path><path d="m242 343.793-102 101.98a78.991 78.991 0 0 0-30-5.863c-44.184 0-80 35.82-80 80 0 44.184 35.816 80 80 80s80-35.816 80-80a78.671 78.671 0 0 0-1.336-14.258l111.527-109 111.52 109a78.327 78.327 0 0 0-1.34 14.258c0 44.184 35.817 80 80 80 44.18 0 80-35.816 80-80 0-44.18-35.82-80-80-80a78.902 78.902 0 0 0-30 5.863L358.492 343.914 547.81 126.16c44.062-55.078.949-121.137.511-121.797a9.983 9.983 0 0 0-7.148-4.379c-2.922-.336-5.84.61-8.004 2.598l-232.89 216.332L67.358 2.582a10.1 10.1 0 0 0-8-2.598 9.983 9.983 0 0 0-7.148 4.38c-.445.66-43.54 66.718.777 122.109zm-71.293 151.45a10.012 10.012 0 0 0-2.691 9.648c6.43 24.847-3.66 51.027-25.094 65.136-21.438 14.114-49.469 13.028-69.754-2.695-20.281-15.723-28.32-42.605-19.996-66.879C61.5 476.176 84.336 459.883 110 459.91c9.59-.008 19.04 2.3 27.54 6.742a10.006 10.006 0 0 0 11.67-1.808l105.888-105.88a70.647 70.647 0 0 0 20.222 13.348l10.559 10.329zm292.137-28.59a59.284 59.284 0 0 1 27.527-6.743c25.863-.156 48.961 16.184 57.418 40.63 8.457 24.448.395 51.562-20.047 67.42-20.437 15.856-48.703 16.93-70.285 2.665-21.578-14.266-31.672-40.695-25.09-65.715a9.985 9.985 0 0 0-2.687-9.648L308.406 376.703a68.138 68.138 0 0 0 36.653-18l106.105 106.102a9.997 9.997 0 0 0 11.68 1.847zm74.535-440.657c8.422 17.91 20.598 55.438-4.918 87.356L332.93 342.84c-18.117 18.262-47.602 18.379-65.86.265-18.257-18.117-18.375-47.605-.257-65.859zM63.12 25.91l222.461 206.613-32.652 30.317a67.554 67.554 0 0 0-20 40L68.36 113.66C42.386 81.203 54.61 43.8 63.12 25.91zm0 0" fill="#6a5111" opacity="1" data-original="#000000" class=""></path></g></svg>