<svg xmlns="http://www.w3.org/2000/svg" version="1.1" xmlns:xlink="http://www.w3.org/1999/xlink" width="64" height="64" x="0" y="0" viewBox="0 0 640 640" style="enable-background:new 0 0 512 512" xml:space="preserve" class=""><g><path d="M206.668 500h80c5.52 0 10-4.477 10-10s-4.48-10-10-10h-80c-5.523 0-10 4.477-10 10s4.477 10 10 10zM206.668 540h60c5.52 0 10-4.477 10-10s-4.48-10-10-10h-60c-5.523 0-10 4.477-10 10s4.477 10 10 10zM206.668 460h30c5.52 0 10-4.477 10-10s-4.48-10-10-10h-30c-5.523 0-10 4.477-10 10s4.477 10 10 10zM276.668 460h10c5.52 0 10-4.477 10-10s-4.48-10-10-10h-10c-5.523 0-10 4.477-10 10s4.477 10 10 10zM126.668 540h-80c-5.523 0-10 4.477-10 10s4.477 10 10 10h80c5.52 0 10-4.477 10-10s-4.48-10-10-10zM46.668 520h30c5.52 0 10-4.477 10-10s-4.48-10-10-10h-30c-5.523 0-10 4.477-10 10s4.477 10 10 10zM126.668 500h-10c-5.523 0-10 4.477-10 10s4.477 10 10 10h10c5.52 0 10-4.477 10-10s-4.48-10-10-10zm0 0" fill="#6a5111" opacity="1" data-original="#000000" class=""></path><path d="M36.668 180v35.238c-.098.059-.223.059-.324.133A89.997 89.997 0 0 0-3.332 290v300c0 5.523 4.477 10 10 10h480c5.52 0 10-4.477 10-10V290a90.01 90.01 0 0 0-39.68-74.629c-.101-.074-.222-.074-.32-.133V180c0-16.566-13.434-30-30-30h-40c-16.57 0-30 13.434-30 30v35.422c-.344.125-.68.277-1.004.445a89.844 89.844 0 0 0-19.305 18.274 89.873 89.873 0 0 0-39.32-68.77c-.105-.074-.223-.074-.324-.133V130c0-16.566-13.434-30-30-30h-40.047c-16.57 0-30 13.434-30 30v35.238c-.098.059-.223.059-.324.133a89.879 89.879 0 0 0-39.317 68.738 90.151 90.151 0 0 0-20.359-18.89V180c0-16.566-13.434-30-30-30h-40c-16.57 0-30 13.434-30 30zm20 103.79a39.531 39.531 0 0 1 60 0V288c0 11.922-13.742 22-30 22-16.262 0-30-10.078-30-22zm330-113.79h40c5.52 0 10 4.477 10 10v78.2a58.995 58.995 0 0 0-60 0V180c0-5.523 4.477-10 10-10zm-10 113.79a39.531 39.531 0 0 1 60 0V288c0 11.922-13.742 22-30 22-16.262 0-30-10.078-30-22zm-20-42.599V288c0 23.164 22.43 42 50 42 27.566 0 50-18.836 50-42v-46.82a69.847 69.847 0 0 1 20 48.82v290h-140V290a69.963 69.963 0 0 1 20-48.809zM226.668 120h40c5.52 0 10 4.477 10 10v78.2a58.995 58.995 0 0 0-60 0V130c0-5.523 4.477-10 10-10zm-10 113.79a39.531 39.531 0 0 1 60 0V238c0 11.922-13.742 22-30 22-16.262 0-30-10.078-30-22zm-40 6.21a69.83 69.83 0 0 1 20-48.82V238c0 23.164 22.43 42 50 42 27.566 0 50-18.836 50-42v-46.82a69.847 69.847 0 0 1 20 48.82v340h-140zm-20 50v290h-140V290a69.83 69.83 0 0 1 20-48.82V288c0 23.164 22.43 42 50 42 27.566 0 50-18.836 50-42v-46.863a69.759 69.759 0 0 1 20 48.863zm-40-110v78.2a58.995 58.995 0 0 0-60 0V180c0-5.523 4.477-10 10-10h40c5.52 0 10 4.477 10 10zm0 0" fill="#6a5111" opacity="1" data-original="#000000" class=""></path><path d="M366.668 560h80c5.52 0 10-4.477 10-10s-4.48-10-10-10h-80c-5.523 0-10 4.477-10 10s4.477 10 10 10zM366.668 520h30c5.52 0 10-4.477 10-10s-4.48-10-10-10h-30c-5.523 0-10 4.477-10 10s4.477 10 10 10zM436.668 520h10c5.52 0 10-4.477 10-10s-4.48-10-10-10h-10c-5.523 0-10 4.477-10 10s4.477 10 10 10zM356.668 110c0 5.523 4.477 10 10 10 5.52 0 10-4.477 10-10 0-16.566 13.43-30 30-30 5.52 0 10-4.477 10-10s-4.48-10-10-10c-16.57 0-30-13.434-30-30 0-5.523-4.48-10-10-10-5.523 0-10 4.477-10 10 0 16.566-13.434 30-30 30-5.523 0-10 4.477-10 10s4.477 10 10 10c16.566 0 30 13.434 30 30zm10-50.309A50.05 50.05 0 0 0 376.973 70a50.05 50.05 0 0 0-10.305 10.309A50.07 50.07 0 0 0 356.359 70a50.07 50.07 0 0 0 10.309-10.309zM126.668 110c0 5.523 4.477 10 10 10 5.52 0 10-4.477 10-10 0-22.09 17.91-40 40-40 5.52 0 10-4.477 10-10s-4.48-10-10-10c-22.09 0-40-17.91-40-40 0-5.523-4.48-10-10-10-5.523 0-10 4.477-10 10 0 22.09-17.91 40-40 40-5.523 0-10 4.477-10 10s4.477 10 10 10c22.09 0 40 17.91 40 40zm10-66.898A60.528 60.528 0 0 0 153.566 60a60.528 60.528 0 0 0-16.898 16.898A60.541 60.541 0 0 0 119.766 60a60.541 60.541 0 0 0 16.902-16.898zm0 0" fill="#6a5111" opacity="1" data-original="#000000" class=""></path></g></svg>