<?xml version="1.0" encoding="UTF-8"?>
<!-- Generator: Adobe Illustrator 24.3.0, SVG Export Plug-In . SVG Version: 6.00 Build 0)  -->
<svg xmlns="http://www.w3.org/2000/svg" xmlns:xlink="http://www.w3.org/1999/xlink" version="1.1" id="Capa_1" x="0px" y="0px" viewBox="0 0 510.875 510.875" fill="#6a5111" style="enable-background:new 0 0 510.875 510.875;" xml:space="preserve" width="24" height="24">
<g>
	<path style="fill-rule:evenodd;clip-rule:evenodd;" d="M434.975,219.174c-98.952-98.952-259.373-98.952-358.325,0   c-17.242,17.242-45.728,17.242-63.719,0c-17.242-17.242-17.242-45.728,0-63.719c134.184-134.184,351.578-134.184,485.013,0   c17.242,17.242,17.242,45.728,0,63.719C481.452,236.416,452.966,236.416,434.975,219.174z"/>
	<path style="fill-rule:evenodd;clip-rule:evenodd;" d="M334.524,319.625c-43.479-43.479-113.195-43.479-156.674,0   c-17.242,17.242-45.728,17.242-63.719,0c-17.242-17.242-17.242-45.728,0-63.719c77.962-77.962,205.4-77.962,283.362,0   c17.242,17.242,17.242,45.728,0,63.719C380.252,337.616,351.766,337.616,334.524,319.625z"/>
	<path d="M315.034,396.088c0,32.984-26.987,59.971-59.971,59.971s-59.971-26.987-59.971-59.971s26.987-59.971,59.971-59.971   S315.034,363.104,315.034,396.088z"/>
</g>















</svg>
